ffmpeg started on 2025-05-28 at 20:36:22
Report written to "D:\Convert\FFMetrics\reports\ssim_report-6.txt"
Log level: 32
Command line:
ffmpeg -hide_banner -nostdin -i "G:\\\xc0\xed\xe8\xec\xe5\\\xce\xed\xe3\xee\xe8\xed\xe3\xe8\\!_36_\xce\xf1\xe5\xed\xfc_2024\\JamClub\\\xc8\xf1\xf2\xee\xf0\xe8\xff \xee \xf2\xee\xec, \xea\xe0\xea \xff \xef\xf0\xe8\xf8\xb8\xeb \xed\xe0 \xe2\xe5\xf7\xe5\xf0\xe8\xed\xea\xf3, \xe0 \xf2\xe0\xec \xed\xe5 \xe1\xfb\xeb\xee \xed\xe8 \xee\xe4\xed\xee\xe9 \xe6\xe5\xed\xf9\xe8\xed\xfb\\JamClub_Goukon_ni_Ittara_Onna_ga_Inakatta_Hanashi_04_1080p_HEVC.mkv" -i "G:\\\xc0\xed\xe8\xec\xe5\\\xce\xed\xe3\xee\xe8\xed\xe3\xe8\\!_36_\xce\xf1\xe5\xed\xfc_2024\\JamClub\\\xc8\xf1\xf2\xee\xf0\xe8\xff \xee \xf2\xee\xec, \xea\xe0\xea \xff \xef\xf0\xe8\xf8\xb8\xeb \xed\xe0 \xe2\xe5\xf7\xe5\xf0\xe8\xed\xea\xf3, \xe0 \xf2\xe0\xec \xed\xe5 \xe1\xfb\xeb\xee \xed\xe8 \xee\xe4\xed\xee\xe9 \xe6\xe5\xed\xf9\xe8\xed\xfb\\JamClub_Goukon_ni_Ittara_Onna_ga_Inakatta_Hanashi_04_1080p.mp4" -lavfi "[0:v]settb=AVTB,setpts=PTS-STARTPTS,format=pix_fmts=yuv420p10,fps=24000/1001,scale=1920:1080:flags=bicubic[main];[1:v]settb=AVTB,setpts=PTS-STARTPTS,format=pix_fmts=yuv420p,fps=24000/1001,scale=1920:1080:flags=bicubic[ref];[main][ref]ssim=eof_action=endall:stats_file='D\\:/Convert/FFMetrics/logs/ssim_logfile-6.txt'" -f null -
Input #0, matroska,webm, from 'G:\Аниме\Онгоинги\!_36_Осень_2024\JamClub\История о том, как я пришёл на вечеринку, а там не было ни одной женщины\JamClub_Goukon_ni_Ittara_Onna_ga_Inakatta_Hanashi_04_1080p_HEVC.mkv':
  Metadata:
    COMPATIBLE_BRANDS: isomiso2avc1mp41
    MAJOR_BRAND     : isom
    MINOR_VERSION   : 512
    ENCODER         : Lavf61.7.100
  Duration: 00:24:03.69, start: -0.001000, bitrate: 886 kb/s
  Stream #0:0: Video: hevc (Main 10), yuv420p10le(tv, bt709, progressive), 1920x1080 [SAR 1:1 DAR 16:9], 23.98 fps, 23.98 tbr, 1k tbn (default)
      Metadata:
        HANDLER_NAME    : VideoHandler
        VENDOR_ID       : [0][0][0][0]
        ENCODER         : Lavc61.19.100 libx265
        BPS             : 688172
        DURATION        : 00:24:03.650708333
        NUMBER_OF_FRAMES: 34613
        NUMBER_OF_BYTES : 124185108
        _STATISTICS_WRITING_APP: mkvpropedit v66.0.0 ('Josie') 64-bit
        _STATISTICS_WRITING_DATE_UTC: 2025-05-28 10:03:15
        _STATISTICS_TAGS: BPS DURATION NUMBER_OF_FRAMES NUMBER_OF_BYTES
  Stream #0:1(eng): Audio: aac (LC), 48000 Hz, stereo, fltp (default)
      Metadata:
        HANDLER_NAME    : SoundHandler
        VENDOR_ID       : [0][0][0][0]
        ENCODER         : Lavc61.19.100 aac
        BPS             : 193773
        DURATION        : 00:24:03.651000000
        NUMBER_OF_FRAMES: 67672
        NUMBER_OF_BYTES : 34967737
        _STATISTICS_WRITING_APP: mkvpropedit v66.0.0 ('Josie') 64-bit
        _STATISTICS_WRITING_DATE_UTC: 2025-05-28 10:03:15
        _STATISTICS_TAGS: BPS DURATION NUMBER_OF_FRAMES NUMBER_OF_BYTES
Input #1, mov,mp4,m4a,3gp,3g2,mj2, from 'G:\Аниме\Онгоинги\!_36_Осень_2024\JamClub\История о том, как я пришёл на вечеринку, а там не было ни одной женщины\JamClub_Goukon_ni_Ittara_Onna_ga_Inakatta_Hanashi_04_1080p.mp4':
  Metadata:
    major_brand     : isom
    minor_version   : 512
    compatible_brands: isomiso2avc1mp41
    encoder         : Lavf60.16.100
  Duration: 00:24:03.67, start: 0.000000, bitrate: 3032 kb/s
  Stream #1:0[0x1](und): Video: h264 (High) (avc1 / 0x31637661), yuv420p(progressive), 1920x1080 [SAR 1:1 DAR 16:9], 2834 kb/s, 23.98 fps, 23.98 tbr, 90k tbn (default)
      Metadata:
        handler_name    : VideoHandler
        vendor_id       : [0][0][0][0]
  Stream #1:1[0x2](eng): Audio: aac (LC) (mp4a / 0x6134706D), 48000 Hz, stereo, fltp, 191 kb/s (default)
      Metadata:
        handler_name    : SoundHandler
        vendor_id       : [0][0][0][0]
Stream mapping:
  Stream #0:0 (hevc) -> settb:default
  Stream #1:0 (h264) -> settb:default
  ssim:default -> Stream #0:0 (wrapped_avframe)
  Stream #0:1 -> #0:1 (aac (native) -> pcm_s16le (native))
Output #0, null, to 'pipe:':
  Metadata:
    COMPATIBLE_BRANDS: isomiso2avc1mp41
    MAJOR_BRAND     : isom
    MINOR_VERSION   : 512
    encoder         : Lavf61.7.100
  Stream #0:0: Video: wrapped_avframe, yuv420p10le(tv, bt709, progressive), 1920x1080 [SAR 1:1 DAR 16:9], q=2-31, 200 kb/s, 23.98 fps, 23.98 tbn
      Metadata:
        encoder         : Lavc61.19.100 wrapped_avframe
  Stream #0:1(eng): Audio: pcm_s16le, 48000 Hz, stereo, s16, 1536 kb/s (default)
      Metadata:
        HANDLER_NAME    : SoundHandler
        VENDOR_ID       : [0][0][0][0]
        _STATISTICS_TAGS: BPS DURATION NUMBER_OF_FRAMES NUMBER_OF_BYTES
        BPS             : 193773
        DURATION        : 00:24:03.651000000
        NUMBER_OF_FRAMES: 67672
        NUMBER_OF_BYTES : 34967737
        _STATISTICS_WRITING_APP: mkvpropedit v66.0.0 ('Josie') 64-bit
        _STATISTICS_WRITING_DATE_UTC: 2025-05-28 10:03:15
        encoder         : Lavc61.19.100 pcm_s16le
frame=  118 fps=0.0 q=-0.0 size=N/A time=00:00:04.92 bitrate=N/A speed=9.38x    frame=  283 fps=273 q=-0.0 size=N/A time=00:00:11.80 bitrate=N/A speed=11.4x    frame=  494 fps=317 q=-0.0 size=N/A time=00:00:20.60 bitrate=N/A speed=13.2x    frame=  752 fps=365 q=-0.0 size=N/A time=00:00:31.36 bitrate=N/A speed=15.2x    frame=  997 fps=386 q=-0.0 size=N/A time=00:00:41.58 bitrate=N/A speed=16.1x    frame= 1235 fps=399 q=-0.0 size=N/A time=00:00:51.50 bitrate=N/A speed=16.6x    frame= 1444 fps=399 q=-0.0 size=N/A time=00:01:00.22 bitrate=N/A speed=16.7x    frame= 1651 fps=400 q=-0.0 size=N/A time=00:01:08.86 bitrate=N/A speed=16.7x    frame= 1867 fps=401 q=-0.0 size=N/A time=00:01:17.86 bitrate=N/A speed=16.7x    frame= 2135 fps=414 q=-0.0 size=N/A time=00:01:29.04 bitrate=N/A speed=17.3x    frame= 2386 fps=420 q=-0.0 size=N/A time=00:01:39.51 bitrate=N/A speed=17.5x    frame= 2609 fps=422 q=-0.0 size=N/A time=00:01:48.81 bitrate=N/A speed=17.6x    frame= 2825 fps=421 q=-0.0 size=N/A time=00:01:57.82 bitrate=N/A speed=17.6x    frame= 3068 fps=424 q=-0.0 size=N/A time=00:02:07.96 bitrate=N/A speed=17.7x    frame= 3335 fps=431 q=-0.0 size=N/A time=00:02:19.09 bitrate=N/A speed=  18x    frame= 3564 fps=432 q=-0.0 size=N/A time=00:02:28.64 bitrate=N/A speed=  18x    frame= 3823 fps=436 q=-0.0 size=N/A time=00:02:39.45 bitrate=N/A speed=18.2x    frame= 4112 fps=442 q=-0.0 size=N/A time=00:02:51.50 bitrate=N/A speed=18.5x    frame= 4404 fps=449 q=-0.0 size=N/A time=00:03:03.68 bitrate=N/A speed=18.7x    frame= 4659 fps=452 q=-0.0 size=N/A time=00:03:14.31 bitrate=N/A speed=18.8x    frame= 4931 fps=455 q=-0.0 size=N/A time=00:03:25.66 bitrate=N/A speed=  19x    frame= 5201 fps=459 q=-0.0 size=N/A time=00:03:36.92 bitrate=N/A speed=19.1x    frame= 5414 fps=456 q=-0.0 size=N/A time=00:03:45.80 bitrate=N/A speed=  19x    frame= 5683 fps=459 q=-0.0 size=N/A time=00:03:57.02 bitrate=N/A speed=19.1x    frame= 5886 fps=457 q=-0.0 size=N/A time=00:04:05.49 bitrate=N/A speed=  19x    frame= 6106 fps=455 q=-0.0 size=N/A time=00:04:14.67 bitrate=N/A speed=  19x    frame= 6355 fps=457 q=-0.0 size=N/A time=00:04:25.05 bitrate=N/A speed=  19x    frame= 6631 fps=459 q=-0.0 size=N/A time=00:04:36.60 bitrate=N/A speed=19.2x    frame= 6910 fps=462 q=-0.0 size=N/A time=00:04:48.20 bitrate=N/A speed=19.3x    frame= 7180 fps=464 q=-0.0 size=N/A time=00:04:59.46 bitrate=N/A speed=19.4x    frame= 7436 fps=465 q=-0.0 size=N/A time=00:05:10.14 bitrate=N/A speed=19.4x    frame= 7709 fps=467 q=-0.0 size=N/A time=00:05:21.52 bitrate=N/A speed=19.5x    frame= 7976 fps=469 q=-0.0 size=N/A time=00:05:32.66 bitrate=N/A speed=19.5x    frame= 8201 fps=468 q=-0.0 size=N/A time=00:05:42.05 bitrate=N/A speed=19.5x    frame= 8448 fps=468 q=-0.0 size=N/A time=00:05:52.35 bitrate=N/A speed=19.5x    frame= 8708 fps=469 q=-0.0 size=N/A time=00:06:03.19 bitrate=N/A speed=19.6x    frame= 8949 fps=469 q=-0.0 size=N/A time=00:06:13.24 bitrate=N/A speed=19.6x    frame= 9203 fps=469 q=-0.0 size=N/A time=00:06:23.84 bitrate=N/A speed=19.6x    frame= 9466 fps=471 q=-0.0 size=N/A time=00:06:34.81 bitrate=N/A speed=19.6x    frame= 9743 fps=472 q=-0.0 size=N/A time=00:06:46.36 bitrate=N/A speed=19.7x    frame=10003 fps=473 q=-0.0 size=N/A time=00:06:57.20 bitrate=N/A speed=19.7x    frame=10262 fps=474 q=-0.0 size=N/A time=00:07:08.01 bitrate=N/A speed=19.8x    frame=10520 fps=474 q=-0.0 size=N/A time=00:07:18.77 bitrate=N/A speed=19.8x    frame=10777 fps=475 q=-0.0 size=N/A time=00:07:29.49 bitrate=N/A speed=19.8x    frame=11026 fps=475 q=-0.0 size=N/A time=00:07:39.87 bitrate=N/A speed=19.8x    frame=11277 fps=475 q=-0.0 size=N/A time=00:07:50.34 bitrate=N/A speed=19.8x    frame=11515 fps=475 q=-0.0 size=N/A time=00:08:00.27 bitrate=N/A speed=19.8x    frame=11734 fps=474 q=-0.0 size=N/A time=00:08:09.40 bitrate=N/A speed=19.8x    frame=12016 fps=475 q=-0.0 size=N/A time=00:08:21.16 bitrate=N/A speed=19.8x    frame=12261 fps=476 q=-0.0 size=N/A time=00:08:31.38 bitrate=N/A speed=19.8x    frame=12544 fps=477 q=-0.0 size=N/A time=00:08:43.18 bitrate=N/A speed=19.9x    frame=12810 fps=478 q=-0.0 size=N/A time=00:08:54.28 bitrate=N/A speed=19.9x    frame=13060 fps=478 q=-0.0 size=N/A time=00:09:04.71 bitrate=N/A speed=19.9x    frame=13357 fps=480 q=-0.0 size=N/A time=00:09:17.09 bitrate=N/A speed=  20x    frame=13595 fps=479 q=-0.0 size=N/A time=00:09:27.02 bitrate=N/A speed=  20x    frame=13865 fps=480 q=-0.0 size=N/A time=00:09:38.28 bitrate=N/A speed=  20x    frame=14148 fps=481 q=-0.0 size=N/A time=00:09:50.08 bitrate=N/A speed=20.1x    frame=14432 fps=482 q=-0.0 size=N/A time=00:10:01.93 bitrate=N/A speed=20.1x    frame=14708 fps=483 q=-0.0 size=N/A time=00:10:13.44 bitrate=N/A speed=20.2x    frame=14964 fps=484 q=-0.0 size=N/A time=00:10:24.12 bitrate=N/A speed=20.2x    frame=15221 fps=484 q=-0.0 size=N/A time=00:10:34.84 bitrate=N/A speed=20.2x    frame=15481 fps=484 q=-0.0 size=N/A time=00:10:45.68 bitrate=N/A speed=20.2x    frame=15764 fps=485 q=-0.0 size=N/A time=00:10:57.49 bitrate=N/A speed=20.2x    frame=16035 fps=486 q=-0.0 size=N/A time=00:11:08.79 bitrate=N/A speed=20.3x    frame=16304 fps=486 q=-0.0 size=N/A time=00:11:20.01 bitrate=N/A speed=20.3x    frame=16576 fps=487 q=-0.0 size=N/A time=00:11:31.35 bitrate=N/A speed=20.3x    frame=16846 fps=488 q=-0.0 size=N/A time=00:11:42.61 bitrate=N/A speed=20.3x    frame=17126 fps=488 q=-0.0 size=N/A time=00:11:54.29 bitrate=N/A speed=20.4x    frame=17388 fps=489 q=-0.0 size=N/A time=00:12:05.22 bitrate=N/A speed=20.4x    frame=17660 fps=489 q=-0.0 size=N/A time=00:12:16.56 bitrate=N/A speed=20.4x    frame=17900 fps=489 q=-0.0 size=N/A time=00:12:26.57 bitrate=N/A speed=20.4x    frame=18169 fps=489 q=-0.0 size=N/A time=00:12:37.79 bitrate=N/A speed=20.4x    frame=18417 fps=489 q=-0.0 size=N/A time=00:12:48.14 bitrate=N/A speed=20.4x    frame=18699 fps=490 q=-0.0 size=N/A time=00:12:59.90 bitrate=N/A speed=20.4x    frame=18980 fps=491 q=-0.0 size=N/A time=00:13:11.62 bitrate=N/A speed=20.5x    frame=19219 fps=490 q=-0.0 size=N/A time=00:13:21.59 bitrate=N/A speed=20.5x    frame=19509 fps=491 q=-0.0 size=N/A time=00:13:33.68 bitrate=N/A speed=20.5x    frame=19761 fps=491 q=-0.0 size=N/A time=00:13:44.19 bitrate=N/A speed=20.5x    frame=20027 fps=492 q=-0.0 size=N/A time=00:13:55.29 bitrate=N/A speed=20.5x    frame=20291 fps=492 q=-0.0 size=N/A time=00:14:06.30 bitrate=N/A speed=20.5x    frame=20536 fps=492 q=-0.0 size=N/A time=00:14:16.52 bitrate=N/A speed=20.5x    frame=20710 fps=490 q=-0.0 size=N/A time=00:14:23.77 bitrate=N/A speed=20.4x    frame=20954 fps=490 q=-0.0 size=N/A time=00:14:33.95 bitrate=N/A speed=20.4x    frame=21185 fps=489 q=-0.0 size=N/A time=00:14:43.59 bitrate=N/A speed=20.4x    frame=21438 fps=489 q=-0.0 size=N/A time=00:14:54.14 bitrate=N/A speed=20.4x    frame=21706 fps=489 q=-0.0 size=N/A time=00:15:05.32 bitrate=N/A speed=20.4x    frame=21957 fps=489 q=-0.0 size=N/A time=00:15:15.78 bitrate=N/A speed=20.4x    frame=22217 fps=490 q=-0.0 size=N/A time=00:15:26.63 bitrate=N/A speed=20.4x    frame=22462 fps=489 q=-0.0 size=N/A time=00:15:36.85 bitrate=N/A speed=20.4x    frame=22715 fps=489 q=-0.0 size=N/A time=00:15:47.40 bitrate=N/A speed=20.4x    frame=22976 fps=490 q=-0.0 size=N/A time=00:15:58.29 bitrate=N/A speed=20.4x    frame=23241 fps=490 q=-0.0 size=N/A time=00:16:09.34 bitrate=N/A speed=20.4x    frame=23506 fps=490 q=-0.0 size=N/A time=00:16:20.39 bitrate=N/A speed=20.4x    frame=23776 fps=491 q=-0.0 size=N/A time=00:16:31.65 bitrate=N/A speed=20.5x    frame=24025 fps=490 q=-0.0 size=N/A time=00:16:42.04 bitrate=N/A speed=20.5x    frame=24302 fps=491 q=-0.0 size=N/A time=00:16:53.59 bitrate=N/A speed=20.5x    frame=24577 fps=491 q=-0.0 size=N/A time=00:17:05.06 bitrate=N/A speed=20.5x    frame=24863 fps=492 q=-0.0 size=N/A time=00:17:16.99 bitrate=N/A speed=20.5x    frame=25145 fps=492 q=-0.0 size=N/A time=00:17:28.75 bitrate=N/A speed=20.5x    frame=25413 fps=493 q=-0.0 size=N/A time=00:17:39.93 bitrate=N/A speed=20.6x    frame=25687 fps=493 q=-0.0 size=N/A time=00:17:51.36 bitrate=N/A speed=20.6x    frame=25937 fps=493 q=-0.0 size=N/A time=00:18:01.78 bitrate=N/A speed=20.6x    frame=26212 fps=493 q=-0.0 size=N/A time=00:18:13.25 bitrate=N/A speed=20.6x    frame=26481 fps=494 q=-0.0 size=N/A time=00:18:24.47 bitrate=N/A speed=20.6x    frame=26761 fps=494 q=-0.0 size=N/A time=00:18:36.15 bitrate=N/A speed=20.6x    frame=27035 fps=495 q=-0.0 size=N/A time=00:18:47.58 bitrate=N/A speed=20.6x    frame=27320 fps=495 q=-0.0 size=N/A time=00:18:59.47 bitrate=N/A speed=20.6x    frame=27530 fps=494 q=-0.0 size=N/A time=00:19:08.23 bitrate=N/A speed=20.6x    frame=27800 fps=494 q=-0.0 size=N/A time=00:19:19.49 bitrate=N/A speed=20.6x    frame=28066 fps=495 q=-0.0 size=N/A time=00:19:30.58 bitrate=N/A speed=20.6x    frame=28332 fps=495 q=-0.0 size=N/A time=00:19:41.68 bitrate=N/A speed=20.6x    frame=28611 fps=495 q=-0.0 size=N/A time=00:19:53.31 bitrate=N/A speed=20.7x    frame=28893 fps=496 q=-0.0 size=N/A time=00:20:05.07 bitrate=N/A speed=20.7x    frame=29179 fps=496 q=-0.0 size=N/A time=00:20:17.00 bitrate=N/A speed=20.7x    frame=29452 fps=496 q=-0.0 size=N/A time=00:20:28.39 bitrate=N/A speed=20.7x    frame=29712 fps=497 q=-0.0 size=N/A time=00:20:39.23 bitrate=N/A speed=20.7x    frame=29963 fps=497 q=-0.0 size=N/A time=00:20:49.70 bitrate=N/A speed=20.7x    frame=30217 fps=496 q=-0.0 size=N/A time=00:21:00.30 bitrate=N/A speed=20.7x    frame=30490 fps=497 q=-0.0 size=N/A time=00:21:11.68 bitrate=N/A speed=20.7x    frame=30748 fps=497 q=-0.0 size=N/A time=00:21:22.44 bitrate=N/A speed=20.7x    frame=31018 fps=497 q=-0.0 size=N/A time=00:21:33.70 bitrate=N/A speed=20.7x    frame=31273 fps=497 q=-0.0 size=N/A time=00:21:44.34 bitrate=N/A speed=20.7x    frame=31542 fps=497 q=-0.0 size=N/A time=00:21:55.56 bitrate=N/A speed=20.7x    frame=31804 fps=497 q=-0.0 size=N/A time=00:22:06.49 bitrate=N/A speed=20.7x    frame=32060 fps=497 q=-0.0 size=N/A time=00:22:17.16 bitrate=N/A speed=20.7x    frame=32294 fps=497 q=-0.0 size=N/A time=00:22:26.92 bitrate=N/A speed=20.7x    frame=32563 fps=497 q=-0.0 size=N/A time=00:22:38.14 bitrate=N/A speed=20.7x    frame=32803 fps=497 q=-0.0 size=N/A time=00:22:48.15 bitrate=N/A speed=20.7x    frame=33036 fps=496 q=-0.0 size=N/A time=00:22:57.87 bitrate=N/A speed=20.7x    frame=33236 fps=496 q=-0.0 size=N/A time=00:23:06.21 bitrate=N/A speed=20.7x    frame=33472 fps=495 q=-0.0 size=N/A time=00:23:16.06 bitrate=N/A speed=20.7x    frame=33747 fps=496 q=-0.0 size=N/A time=00:23:27.53 bitrate=N/A speed=20.7x    frame=33994 fps=495 q=-0.0 size=N/A time=00:23:37.83 bitrate=N/A speed=20.7x    frame=34199 fps=495 q=-0.0 size=N/A time=00:23:46.38 bitrate=N/A speed=20.6x    frame=34433 fps=494 q=-0.0 size=N/A time=00:23:56.14 bitrate=N/A speed=20.6x    [Parsed_ssim_10 @ 00000195a3c68f40] SSIM Y:0.996776 (24.915457) U:0.995956 (23.931986) V:0.995656 (23.621532) All:0.996452 (24.500727)
[out#0/null @ 000001959d167e80] video:14873KiB audio:270688KiB subtitle:0KiB other streams:0KiB global headers:0KiB muxing overhead: unknown
frame=34613 fps=495 q=-0.0 Lsize=N/A time=00:24:03.65 bitrate=N/A speed=20.6x    
